<svg width="513" height="513" viewBox="0 0 513 513" fill="none" xmlns="http://www.w3.org/2000/svg">
<style>
  #favicon-background { fill: #030303 }
  #favicon-text { fill: #ebebeb }

  @media (prefers-color-scheme: light) {
    #favicon-background { fill: #ebebeb }
    #favicon-text { fill: #030303 }
  }
</style>
<rect id="favicon-background" x="0.232056" y="0.453735" width="512" height="512" />
<path id="favicon-text" d="M249.832 290.354C249.832 297.42 248.032 303.754 244.432 309.354C240.832 314.82 235.965 319.154 229.832 322.354C223.832 325.42 217.232 326.954 210.032 326.954H143.032V184.954H211.432C218.099 184.954 223.832 186.754 228.632 190.354C233.565 193.82 237.299 198.354 239.832 203.954C242.499 209.42 243.832 215.154 243.832 221.154C243.832 228.22 242.032 234.754 238.432 240.754C234.832 246.754 229.832 251.22 223.432 254.154C231.565 256.554 237.965 261.02 242.632 267.554C247.432 274.087 249.832 281.687 249.832 290.354ZM235.832 287.954C235.832 283.154 234.765 278.754 232.632 274.754C230.499 270.62 227.565 267.287 223.832 264.754C220.232 262.22 216.099 260.954 211.432 260.954H157.032V314.754H210.032C214.832 314.754 219.165 313.487 223.032 310.954C226.899 308.42 229.965 305.154 232.232 301.154C234.632 297.02 235.832 292.62 235.832 287.954ZM157.032 197.154V249.554H205.832C210.499 249.554 214.632 248.354 218.232 245.954C221.832 243.42 224.699 240.154 226.832 236.154C228.965 232.154 230.032 227.887 230.032 223.354C230.032 218.554 229.032 214.22 227.032 210.354C225.032 206.354 222.299 203.154 218.832 200.754C215.365 198.354 211.432 197.154 207.032 197.154H157.032ZM276.235 326.954V185.154H290.235V267.554L368.435 184.954H383.835L325.835 247.354L386.835 326.954H371.035L316.835 255.754L290.235 283.354V326.954H276.235Z" />
<rect x="65.5969" y="65.8186" width="381.27" height="381.27" stroke="#FFCC00" stroke-width="20"/>
<mask id="mask0_301_715" style="mask-type:alpha" maskUnits="userSpaceOnUse" x="19" y="55" width="438" height="209">
<rect x="19.075" y="55.8186" width="437.792" height="208" fill="#C4C4C4"/>
</mask>
<g mask="url(#mask0_301_715)">
<path d="M65.5969 65.8186H446.867V447.089H65.5969V65.8186Z" stroke="#0066CC" stroke-width="20"/>
</g>
</svg>
