<!-- <svg width="24" height="24" viewBox="0 0 24 24" xmlns="http://www.w3.org/2000/svg">
<rect x="4" y="10.5838" width="14" height="2" rx="1" />
<path d="M13.29 6.29376C12.9 6.68376 12.9 7.31376 13.29 7.70376L17.17 11.5838L13.29 15.4638C12.9 15.8538 12.9 16.4838 13.29 16.8738C13.68 17.2638 14.31 17.2638 14.7 16.8738L19.29 12.2838C19.68 11.8938 19.68 11.2638 19.29 10.8738L14.7 6.28376C14.32 5.90376 13.68 5.90376 13.29 6.29376Z" />
</svg> -->

<!-- <svg width="31" height="28" viewBox="0 0 31 28"  xmlns="http://www.w3.org/2000/svg">
<rect y="12.85" width="30" height="2" rx="1" />
<path d="M14.5 27.9727C14.2083 27.9727 13.9531 27.8815 13.7344 27.6992C13.5156 27.5169 13.4062 27.2982 13.4062 27.043C13.4062 26.7878 13.5104 26.569 13.7188 26.3867L28 13.8906L13.9375 1.61328C13.8125 1.48568 13.724 1.33984 13.6719 1.17578C13.6198 1.01172 13.6198 0.852214 13.6719 0.697266C13.724 0.542318 13.8125 0.401042 13.9375 0.273438C14.1458 0.0911458 14.401 0 14.7031 0C15.0052 0 15.2604 0.0911458 15.4688 0.273438L30.25 13.2344C30.3542 13.3255 30.4323 13.4303 30.4844 13.5488C30.5365 13.6673 30.5625 13.7858 30.5625 13.9043C30.5625 14.0228 30.5365 14.1367 30.4844 14.2461C30.4323 14.3555 30.3542 14.4557 30.25 14.5469L15.25 27.6992C15.1458 27.7904 15.026 27.8587 14.8906 27.9043C14.7552 27.9499 14.625 27.9727 14.5 27.9727Z" />
</svg> -->

<svg width="48" height="28" viewBox="0 0 48 28" xmlns="http://www.w3.org/2000/svg">
<path d="M31.5 27.9727C31.2083 27.9727 30.9531 27.8815 30.7344 27.6992C30.5156 27.5169 30.4062 27.2982 30.4062 27.043C30.4062 26.7878 30.5104 26.569 30.7188 26.3867L45 13.8906L30.9375 1.61328C30.8125 1.48568 30.724 1.33984 30.6719 1.17578C30.6198 1.01172 30.6198 0.852214 30.6719 0.697266C30.724 0.542318 30.8125 0.401042 30.9375 0.273438C31.1458 0.0911458 31.401 0 31.7031 0C32.0052 0 32.2604 0.0911458 32.4688 0.273438L47.25 13.2344C47.3542 13.3255 47.4323 13.4303 47.4844 13.5488C47.5365 13.6673 47.5625 13.7858 47.5625 13.9043C47.5625 14.0228 47.5365 14.1367 47.4844 14.2461C47.4323 14.3555 47.3542 14.4557 47.25 14.5469L32.25 27.6992C32.1458 27.7904 32.026 27.8587 31.8906 27.9043C31.7552 27.9499 31.625 27.9727 31.5 27.9727Z"/>
<path d="M1 14H46" stroke="currentColor" stroke-width="2" stroke-linecap="round"/>
</svg>