<svg viewBox="0 0 137 12" fill="none" xmlns="http://www.w3.org/2000/svg">
<path d="M4.63477 7.72266C4.22852 8.21094 3.81836 8.57031 3.4043 8.80078C2.99023 9.02734 2.55273 9.14062 2.0918 9.14062C1.53711 9.14062 1.10352 8.98438 0.791016 8.67188C0.482422 8.35938 0.328125 7.93945 0.328125 7.41211C0.328125 6.81445 0.494141 6.22656 0.826172 5.64844C1.16211 5.07031 1.61133 4.60156 2.17383 4.24219C2.74023 3.87891 3.29492 3.69727 3.83789 3.69727C4.26367 3.69727 4.58203 3.78711 4.79297 3.9668C5.00391 4.14258 5.10938 4.35938 5.10938 4.61719C5.10938 4.85938 5.03516 5.06641 4.88672 5.23828C4.77734 5.37109 4.64258 5.4375 4.48242 5.4375C4.36133 5.4375 4.25977 5.39844 4.17773 5.32031C4.09961 5.24219 4.06055 5.14453 4.06055 5.02734C4.06055 4.95312 4.07422 4.88477 4.10156 4.82227C4.13281 4.75977 4.19336 4.68555 4.2832 4.59961C4.37695 4.50977 4.43359 4.44531 4.45312 4.40625C4.47266 4.36719 4.48242 4.32617 4.48242 4.2832C4.48242 4.20117 4.44531 4.13281 4.37109 4.07812C4.25781 4 4.09766 3.96094 3.89062 3.96094C3.50781 3.96094 3.12891 4.0957 2.75391 4.36523C2.37891 4.63477 2.05859 5.01758 1.79297 5.51367C1.47266 6.11523 1.3125 6.7168 1.3125 7.31836C1.3125 7.7168 1.42578 8.0332 1.65234 8.26758C1.87891 8.49805 2.1875 8.61328 2.57812 8.61328C2.87891 8.61328 3.17578 8.53906 3.46875 8.39062C3.76562 8.23828 4.09766 7.96484 4.46484 7.57031L4.63477 7.72266Z" stroke="#303030" stroke-width="0.25"/>
<path d="M10.8809 5.53125C10.8809 6.11719 10.7246 6.69727 10.4121 7.27148C10.1035 7.8457 9.67188 8.30078 9.11719 8.63672C8.5625 8.97266 8.02344 9.14062 7.5 9.14062C6.96484 9.14062 6.52734 8.9707 6.1875 8.63086C5.85156 8.28711 5.68359 7.84375 5.68359 7.30078C5.68359 6.72656 5.84766 6.15039 6.17578 5.57227C6.50781 4.99414 6.94922 4.53711 7.5 4.20117C8.05469 3.86523 8.58984 3.69727 9.10547 3.69727C9.62109 3.69727 10.0449 3.86719 10.377 4.20703C10.7129 4.54688 10.8809 4.98828 10.8809 5.53125ZM9.9082 5.12695C9.9082 4.76367 9.81836 4.48633 9.63867 4.29492C9.46289 4.09961 9.23438 4.00195 8.95312 4.00195C8.37891 4.00195 7.84961 4.41406 7.36523 5.23828C6.88477 6.05859 6.64453 6.875 6.64453 7.6875C6.64453 8.05859 6.73828 8.3457 6.92578 8.54883C7.11328 8.74805 7.34961 8.84766 7.63477 8.84766C8.18555 8.84766 8.70117 8.43945 9.18164 7.62305C9.66602 6.80273 9.9082 5.9707 9.9082 5.12695Z" stroke="#303030" stroke-width="0.25"/>
<path d="M13.9805 3.69727L13.2012 6.36328C13.9316 5.27344 14.4902 4.55664 14.877 4.21289C15.2676 3.86914 15.6426 3.69727 16.002 3.69727C16.1973 3.69727 16.3574 3.76172 16.4824 3.89062C16.6113 4.01953 16.6758 4.1875 16.6758 4.39453C16.6758 4.62891 16.6191 4.94141 16.5059 5.33203L15.791 7.79883C15.709 8.08398 15.668 8.25781 15.668 8.32031C15.668 8.375 15.6836 8.42188 15.7148 8.46094C15.7461 8.49609 15.7793 8.51367 15.8145 8.51367C15.8613 8.51367 15.918 8.48828 15.9844 8.4375C16.1914 8.27344 16.418 8.02344 16.6641 7.6875L16.8457 7.79883C16.4824 8.31836 16.1387 8.68945 15.8145 8.91211C15.5879 9.06445 15.3848 9.14062 15.2051 9.14062C15.0605 9.14062 14.9453 9.0957 14.8594 9.00586C14.7734 8.91992 14.7305 8.80273 14.7305 8.6543C14.7305 8.4668 14.7969 8.14453 14.9297 7.6875L15.6094 5.33203C15.6953 5.03906 15.7383 4.81055 15.7383 4.64648C15.7383 4.56836 15.7129 4.50586 15.6621 4.45898C15.6113 4.4082 15.5488 4.38281 15.4746 4.38281C15.3652 4.38281 15.2344 4.42969 15.082 4.52344C14.793 4.69922 14.4922 4.99023 14.1797 5.39648C13.8672 5.79883 13.5371 6.31445 13.1895 6.94336C13.0059 7.27539 12.8535 7.63867 12.7324 8.0332L12.4395 9H11.5605L12.627 5.33203C12.752 4.89062 12.8145 4.625 12.8145 4.53516C12.8145 4.44922 12.7793 4.375 12.709 4.3125C12.6426 4.24609 12.5586 4.21289 12.457 4.21289C12.4102 4.21289 12.3281 4.2207 12.2109 4.23633L11.9883 4.27148L11.9531 4.06055L13.9805 3.69727Z" stroke="#303030" stroke-width="0.25"/>
<path d="M20.4492 2.24414L19.9922 3.83789H20.9121L20.8125 4.20703H19.8984L18.8906 7.66406C18.7812 8.03516 18.7266 8.27539 18.7266 8.38477C18.7266 8.45117 18.7422 8.50195 18.7734 8.53711C18.8047 8.57227 18.8418 8.58984 18.8848 8.58984C18.9824 8.58984 19.1113 8.52148 19.2715 8.38477C19.3652 8.30664 19.5742 8.06641 19.8984 7.66406L20.0918 7.81055C19.7324 8.33398 19.3926 8.70312 19.0723 8.91797C18.8535 9.06641 18.6328 9.14062 18.4102 9.14062C18.2383 9.14062 18.0977 9.08789 17.9883 8.98242C17.8789 8.87305 17.8242 8.73438 17.8242 8.56641C17.8242 8.35547 17.8867 8.0332 18.0117 7.59961L18.9902 4.20703H18.1055L18.1641 3.97852C18.5938 3.86133 18.9512 3.6875 19.2363 3.45703C19.5215 3.22266 19.8398 2.81836 20.1914 2.24414H20.4492Z" stroke="#303030" stroke-width="0.25"/>
<path d="M26.3027 3.69727L25.1602 7.66992L25.0312 8.20312C25.0195 8.25391 25.0137 8.29688 25.0137 8.33203C25.0137 8.39453 25.0332 8.44922 25.0723 8.49609C25.1035 8.53125 25.1426 8.54883 25.1895 8.54883C25.2402 8.54883 25.3066 8.51758 25.3887 8.45508C25.541 8.3418 25.7441 8.10742 25.998 7.75195L26.1973 7.89258C25.9277 8.29883 25.6504 8.60938 25.3652 8.82422C25.0801 9.03516 24.8164 9.14062 24.5742 9.14062C24.4062 9.14062 24.2793 9.09766 24.1934 9.01172C24.1113 8.92969 24.0703 8.80859 24.0703 8.64844C24.0703 8.45703 24.1133 8.20508 24.1992 7.89258L24.3223 7.45312C23.8105 8.12109 23.3398 8.58789 22.9102 8.85352C22.6016 9.04492 22.2988 9.14062 22.002 9.14062C21.7168 9.14062 21.4707 9.02344 21.2637 8.78906C21.0566 8.55078 20.9531 8.22461 20.9531 7.81055C20.9531 7.18945 21.1387 6.53516 21.5098 5.84766C21.8848 5.15625 22.3594 4.60352 22.9336 4.18945C23.3828 3.86133 23.8066 3.69727 24.2051 3.69727C24.4434 3.69727 24.6406 3.75977 24.7969 3.88477C24.957 4.00977 25.0781 4.2168 25.1602 4.50586L25.3711 3.83789L26.3027 3.69727ZM24.2168 4.00195C23.9668 4.00195 23.7012 4.11914 23.4199 4.35352C23.0215 4.68555 22.666 5.17773 22.3535 5.83008C22.0449 6.48242 21.8906 7.07227 21.8906 7.59961C21.8906 7.86523 21.957 8.07617 22.0898 8.23242C22.2227 8.38477 22.375 8.46094 22.5469 8.46094C22.9727 8.46094 23.4355 8.14648 23.9355 7.51758C24.6035 6.68164 24.9375 5.82422 24.9375 4.94531C24.9375 4.61328 24.873 4.37305 24.7441 4.22461C24.6152 4.07617 24.4395 4.00195 24.2168 4.00195Z" stroke="#303030" stroke-width="0.25"/>
<path d="M31.3066 7.72266C30.9004 8.21094 30.4902 8.57031 30.0762 8.80078C29.6621 9.02734 29.2246 9.14062 28.7637 9.14062C28.209 9.14062 27.7754 8.98438 27.4629 8.67188C27.1543 8.35938 27 7.93945 27 7.41211C27 6.81445 27.166 6.22656 27.498 5.64844C27.834 5.07031 28.2832 4.60156 28.8457 4.24219C29.4121 3.87891 29.9668 3.69727 30.5098 3.69727C30.9355 3.69727 31.2539 3.78711 31.4648 3.9668C31.6758 4.14258 31.7812 4.35938 31.7812 4.61719C31.7812 4.85938 31.707 5.06641 31.5586 5.23828C31.4492 5.37109 31.3145 5.4375 31.1543 5.4375C31.0332 5.4375 30.9316 5.39844 30.8496 5.32031C30.7715 5.24219 30.7324 5.14453 30.7324 5.02734C30.7324 4.95312 30.7461 4.88477 30.7734 4.82227C30.8047 4.75977 30.8652 4.68555 30.9551 4.59961C31.0488 4.50977 31.1055 4.44531 31.125 4.40625C31.1445 4.36719 31.1543 4.32617 31.1543 4.2832C31.1543 4.20117 31.1172 4.13281 31.043 4.07812C30.9297 4 30.7695 3.96094 30.5625 3.96094C30.1797 3.96094 29.8008 4.0957 29.4258 4.36523C29.0508 4.63477 28.7305 5.01758 28.4648 5.51367C28.1445 6.11523 27.9844 6.7168 27.9844 7.31836C27.9844 7.7168 28.0977 8.0332 28.3242 8.26758C28.5508 8.49805 28.8594 8.61328 29.25 8.61328C29.5508 8.61328 29.8477 8.53906 30.1406 8.39062C30.4375 8.23828 30.7695 7.96484 31.1367 7.57031L31.3066 7.72266Z" stroke="#303030" stroke-width="0.25"/>
<path d="M35.1211 2.24414L34.6641 3.83789H35.584L35.4844 4.20703H34.5703L33.5625 7.66406C33.4531 8.03516 33.3984 8.27539 33.3984 8.38477C33.3984 8.45117 33.4141 8.50195 33.4453 8.53711C33.4766 8.57227 33.5137 8.58984 33.5566 8.58984C33.6543 8.58984 33.7832 8.52148 33.9434 8.38477C34.0371 8.30664 34.2461 8.06641 34.5703 7.66406L34.7637 7.81055C34.4043 8.33398 34.0645 8.70312 33.7441 8.91797C33.5254 9.06641 33.3047 9.14062 33.082 9.14062C32.9102 9.14062 32.7695 9.08789 32.6602 8.98242C32.5508 8.87305 32.4961 8.73438 32.4961 8.56641C32.4961 8.35547 32.5586 8.0332 32.6836 7.59961L33.6621 4.20703H32.7773L32.8359 3.97852C33.2656 3.86133 33.623 3.6875 33.9082 3.45703C34.1934 3.22266 34.5117 2.81836 34.8633 2.24414H35.1211Z" stroke="#303030" stroke-width="0.25"/>
<path d="M43.5938 3.38672L42.9082 5.72461C42.6543 6.59961 42.5 7.1543 42.4453 7.38867C42.3906 7.62305 42.3633 7.81055 42.3633 7.95117C42.3633 8.07617 42.4043 8.18164 42.4863 8.26758C42.5723 8.35352 42.6777 8.39648 42.8027 8.39648C43.0879 8.39648 43.4297 8.25391 43.8281 7.96875C44.2305 7.68359 44.5742 7.2207 44.8594 6.58008C45.1445 5.93945 45.2871 5.27148 45.2871 4.57617C45.2871 3.9082 45.125 3.29102 44.8008 2.72461C44.4805 2.1582 44.0254 1.72461 43.4355 1.42383C42.8496 1.11914 42.2012 0.966797 41.4902 0.966797C40.5879 0.966797 39.75 1.20703 38.9766 1.6875C38.2031 2.16406 37.5898 2.85156 37.1367 3.75C36.6875 4.64844 36.4629 5.58203 36.4629 6.55078C36.4629 7.44922 36.6602 8.26562 37.0547 9C37.4531 9.73438 38.0117 10.2891 38.7305 10.6641C39.4492 11.043 40.2227 11.2324 41.0508 11.2324C42.0781 11.2324 43.0059 10.957 43.834 10.4062C44.666 9.85547 45.3086 9.05078 45.7617 7.99219H46.1016C45.75 9.0625 45.1113 9.92969 44.1855 10.5938C43.2598 11.2578 42.2051 11.5898 41.0215 11.5898C40.0918 11.5898 39.2285 11.3691 38.4316 10.9277C37.6348 10.4902 37.0156 9.86719 36.5742 9.05859C36.1328 8.25391 35.9121 7.36719 35.9121 6.39844C35.9121 5.36719 36.1543 4.40625 36.6387 3.51562C37.123 2.62109 37.8008 1.92383 38.6719 1.42383C39.5469 0.919922 40.4746 0.667969 41.4551 0.667969C42.2637 0.667969 42.9922 0.835938 43.6406 1.17188C44.293 1.50391 44.7891 1.99219 45.1289 2.63672C45.4688 3.27734 45.6387 3.95898 45.6387 4.68164C45.6387 5.39648 45.4785 6.10547 45.1582 6.80859C44.8418 7.50781 44.4375 8.01758 43.9453 8.33789C43.4531 8.6582 42.9395 8.81836 42.4043 8.81836C42.1074 8.81836 41.8828 8.74805 41.7305 8.60742C41.582 8.4668 41.5078 8.26953 41.5078 8.01562C41.5078 7.79688 41.543 7.50977 41.6133 7.1543C41.0352 7.85352 40.5723 8.30664 40.2246 8.51367C39.877 8.7207 39.5703 8.82422 39.3047 8.82422C39.0273 8.82422 38.7812 8.70117 38.5664 8.45508C38.3516 8.20508 38.2441 7.87305 38.2441 7.45898C38.2441 6.89258 38.4277 6.25781 38.7949 5.55469C39.166 4.85156 39.6562 4.2793 40.2656 3.83789C40.7148 3.51367 41.1172 3.35156 41.4727 3.35156C41.7344 3.35156 41.9512 3.41992 42.123 3.55664C42.2988 3.68945 42.418 3.89062 42.4805 4.16016L42.6738 3.51562L43.5938 3.38672ZM41.5371 3.62695C41.2441 3.62695 40.9473 3.78125 40.6465 4.08984C40.2051 4.54297 39.8281 5.1543 39.5156 5.92383C39.2852 6.48633 39.1699 6.93945 39.1699 7.2832C39.1699 7.5293 39.2383 7.73047 39.375 7.88672C39.5156 8.03906 39.6719 8.11523 39.8438 8.11523C40.0703 8.11523 40.3086 8.0293 40.5586 7.85742C40.8086 7.68555 41.0703 7.42188 41.3438 7.06641C41.6172 6.70703 41.8164 6.34766 41.9414 5.98828C42.1602 5.36719 42.2695 4.86133 42.2695 4.4707C42.2695 4.21289 42.1973 4.00781 42.0527 3.85547C41.9121 3.70312 41.7402 3.62695 41.5371 3.62695Z" stroke="#303030" stroke-width="0.25"/>
<path d="M49.8457 0.667969L48.6914 4.7168C49.0664 4.32617 49.3926 4.05859 49.6699 3.91406C49.9512 3.76953 50.2441 3.69727 50.5488 3.69727C50.9785 3.69727 51.3301 3.83984 51.6035 4.125C51.877 4.41016 52.0137 4.79688 52.0137 5.28516C52.0137 5.91406 51.834 6.54102 51.4746 7.16602C51.1152 7.78711 50.6641 8.27148 50.1211 8.61914C49.5781 8.9668 49.043 9.14062 48.5156 9.14062C47.9258 9.14062 47.3203 8.91992 46.6992 8.47852L48.4805 2.34375C48.6172 1.87109 48.6855 1.59375 48.6855 1.51172C48.6855 1.41016 48.6543 1.33398 48.5918 1.2832C48.502 1.21289 48.3691 1.17773 48.1934 1.17773C48.1113 1.17773 47.9863 1.19141 47.8184 1.21875V0.996094L49.8457 0.667969ZM47.5781 8.54297C47.9688 8.75781 48.3125 8.86523 48.6094 8.86523C48.9531 8.86523 49.3086 8.74023 49.6758 8.49023C50.0469 8.23633 50.3672 7.81055 50.6367 7.21289C50.9102 6.61523 51.0469 6.01172 51.0469 5.40234C51.0469 5.04297 50.957 4.76172 50.7773 4.55859C50.6016 4.35547 50.3926 4.25391 50.1504 4.25391C49.7871 4.25391 49.4316 4.40039 49.084 4.69336C48.7363 4.98242 48.4883 5.38672 48.3398 5.90625L47.5781 8.54297Z" stroke="#303030" stroke-width="0.25"/>
<path d="M57.9316 5.53125C57.9316 6.11719 57.7754 6.69727 57.4629 7.27148C57.1543 7.8457 56.7227 8.30078 56.168 8.63672C55.6133 8.97266 55.0742 9.14062 54.5508 9.14062C54.0156 9.14062 53.5781 8.9707 53.2383 8.63086C52.9023 8.28711 52.7344 7.84375 52.7344 7.30078C52.7344 6.72656 52.8984 6.15039 53.2266 5.57227C53.5586 4.99414 54 4.53711 54.5508 4.20117C55.1055 3.86523 55.6406 3.69727 56.1562 3.69727C56.6719 3.69727 57.0957 3.86719 57.4277 4.20703C57.7637 4.54688 57.9316 4.98828 57.9316 5.53125ZM56.959 5.12695C56.959 4.76367 56.8691 4.48633 56.6895 4.29492C56.5137 4.09961 56.2852 4.00195 56.0039 4.00195C55.4297 4.00195 54.9004 4.41406 54.416 5.23828C53.9355 6.05859 53.6953 6.875 53.6953 7.6875C53.6953 8.05859 53.7891 8.3457 53.9766 8.54883C54.1641 8.74805 54.4004 8.84766 54.6855 8.84766C55.2363 8.84766 55.752 8.43945 56.2324 7.62305C56.7168 6.80273 56.959 5.9707 56.959 5.12695Z" stroke="#303030" stroke-width="0.25"/>
<path d="M64.6348 4.06055L64.4648 4.66992H63.4863C63.5605 4.88086 63.5977 5.07812 63.5977 5.26172C63.5977 5.77734 63.3789 6.23633 62.9414 6.63867C62.5 7.04102 61.8945 7.26367 61.125 7.30664C60.7109 7.43164 60.4004 7.58008 60.1934 7.75195C60.1152 7.81445 60.0762 7.87891 60.0762 7.94531C60.0762 8.02344 60.1113 8.0957 60.1816 8.16211C60.252 8.22461 60.4297 8.28906 60.7148 8.35547L61.8516 8.61914C62.4805 8.76758 62.8965 8.94336 63.0996 9.14648C63.2988 9.35352 63.3984 9.5918 63.3984 9.86133C63.3984 10.1816 63.2793 10.4746 63.041 10.7402C62.8066 11.0059 62.4609 11.2129 62.0039 11.3613C61.5508 11.5137 61.0488 11.5898 60.498 11.5898C60.0137 11.5898 59.5723 11.5312 59.1738 11.4141C58.7754 11.3008 58.4902 11.1465 58.3184 10.9512C58.1465 10.7559 58.0605 10.5547 58.0605 10.3477C58.0605 10.1797 58.1172 10.0039 58.2305 9.82031C58.3398 9.64062 58.4785 9.49219 58.6465 9.375C58.752 9.30078 59.0508 9.125 59.543 8.84766C59.3633 8.70703 59.2734 8.55273 59.2734 8.38477C59.2734 8.22852 59.3516 8.0625 59.5078 7.88672C59.668 7.71094 60.0039 7.51758 60.5156 7.30664C60.0859 7.22461 59.7441 7.04492 59.4902 6.76758C59.2402 6.49023 59.1152 6.18164 59.1152 5.8418C59.1152 5.28711 59.3574 4.79102 59.8418 4.35352C60.3301 3.91602 60.9785 3.69727 61.7871 3.69727C62.0801 3.69727 62.3203 3.72656 62.5078 3.78516C62.6953 3.84375 62.877 3.93555 63.0527 4.06055H64.6348ZM62.6016 4.98047C62.6016 4.66797 62.5137 4.42188 62.3379 4.24219C62.166 4.0625 61.9395 3.97266 61.6582 3.97266C61.2168 3.97266 60.8516 4.19531 60.5625 4.64062C60.2773 5.08203 60.1348 5.54297 60.1348 6.02344C60.1348 6.32422 60.2266 6.57031 60.4102 6.76172C60.5938 6.95312 60.8164 7.04883 61.0781 7.04883C61.2852 7.04883 61.4844 6.99219 61.6758 6.87891C61.8711 6.76562 62.0352 6.60938 62.168 6.41016C62.3008 6.21094 62.4062 5.95703 62.4844 5.64844C62.5625 5.33984 62.6016 5.11719 62.6016 4.98047ZM59.7949 9C59.4785 9.14453 59.2383 9.33008 59.0742 9.55664C58.9141 9.7832 58.834 10.0059 58.834 10.2246C58.834 10.4824 58.9512 10.6953 59.1855 10.8633C59.5215 11.1055 60.0137 11.2266 60.6621 11.2266C61.2207 11.2266 61.6973 11.1309 62.0918 10.9395C62.4902 10.752 62.6895 10.5078 62.6895 10.207C62.6895 10.0547 62.6152 9.91016 62.4668 9.77344C62.3223 9.63672 62.0391 9.52539 61.6172 9.43945C61.3867 9.39258 60.7793 9.24609 59.7949 9Z" stroke="#303030" stroke-width="0.25"/>
<path d="M70.875 0.667969L68.8594 7.58203C68.75 7.95703 68.6953 8.20312 68.6953 8.32031C68.6953 8.35938 68.7109 8.39648 68.7422 8.43164C68.7773 8.4668 68.8125 8.48438 68.8477 8.48438C68.8984 8.48438 68.959 8.45898 69.0293 8.4082C69.1621 8.31445 69.3848 8.08008 69.6973 7.70508L69.8965 7.82812C69.6152 8.21875 69.3301 8.53516 69.041 8.77734C68.7559 9.01953 68.4883 9.14062 68.2383 9.14062C68.1055 9.14062 67.9961 9.09375 67.9102 9C67.8242 8.90625 67.7812 8.77344 67.7812 8.60156C67.7812 8.37891 67.8398 8.08008 67.957 7.70508L68.1855 6.97852C67.6191 7.85352 67.1035 8.45898 66.6387 8.79492C66.3184 9.02539 66.0117 9.14062 65.7188 9.14062C65.4219 9.14062 65.1621 9.00977 64.9395 8.74805C64.7207 8.48242 64.6113 8.12305 64.6113 7.66992C64.6113 7.08789 64.7969 6.4668 65.168 5.80664C65.5391 5.14648 66.0293 4.60938 66.6387 4.19531C67.1191 3.86328 67.5605 3.69727 67.9629 3.69727C68.1738 3.69727 68.3555 3.74023 68.5078 3.82617C68.6602 3.91211 68.8105 4.05469 68.959 4.25391L69.5332 2.21484C69.5762 2.07031 69.6113 1.95508 69.6387 1.86914C69.6855 1.71289 69.709 1.58398 69.709 1.48242C69.709 1.40039 69.6797 1.33203 69.6211 1.27734C69.5391 1.21094 69.4336 1.17773 69.3047 1.17773C69.2148 1.17773 69.0664 1.19141 68.8594 1.21875V1.00195L70.875 0.667969ZM68.7012 4.82812C68.7012 4.57812 68.6289 4.37695 68.4844 4.22461C68.3398 4.07227 68.1562 3.99609 67.9336 3.99609C67.4414 3.99609 66.9277 4.40234 66.3926 5.21484C65.8613 6.02734 65.5957 6.80469 65.5957 7.54688C65.5957 7.83984 65.6602 8.06445 65.7891 8.2207C65.918 8.37305 66.0723 8.44922 66.252 8.44922C66.6582 8.44922 67.168 8.00977 67.7812 7.13086C68.3945 6.25195 68.7012 5.48438 68.7012 4.82812Z" stroke="#303030" stroke-width="0.25"/>
<path d="M76.0137 3.69727L74.8711 7.66992L74.7422 8.20312C74.7305 8.25391 74.7246 8.29688 74.7246 8.33203C74.7246 8.39453 74.7441 8.44922 74.7832 8.49609C74.8145 8.53125 74.8535 8.54883 74.9004 8.54883C74.9512 8.54883 75.0176 8.51758 75.0996 8.45508C75.252 8.3418 75.4551 8.10742 75.709 7.75195L75.9082 7.89258C75.6387 8.29883 75.3613 8.60938 75.0762 8.82422C74.791 9.03516 74.5273 9.14062 74.2852 9.14062C74.1172 9.14062 73.9902 9.09766 73.9043 9.01172C73.8223 8.92969 73.7812 8.80859 73.7812 8.64844C73.7812 8.45703 73.8242 8.20508 73.9102 7.89258L74.0332 7.45312C73.5215 8.12109 73.0508 8.58789 72.6211 8.85352C72.3125 9.04492 72.0098 9.14062 71.7129 9.14062C71.4277 9.14062 71.1816 9.02344 70.9746 8.78906C70.7676 8.55078 70.6641 8.22461 70.6641 7.81055C70.6641 7.18945 70.8496 6.53516 71.2207 5.84766C71.5957 5.15625 72.0703 4.60352 72.6445 4.18945C73.0938 3.86133 73.5176 3.69727 73.916 3.69727C74.1543 3.69727 74.3516 3.75977 74.5078 3.88477C74.668 4.00977 74.7891 4.2168 74.8711 4.50586L75.082 3.83789L76.0137 3.69727ZM73.9277 4.00195C73.6777 4.00195 73.4121 4.11914 73.1309 4.35352C72.7324 4.68555 72.377 5.17773 72.0645 5.83008C71.7559 6.48242 71.6016 7.07227 71.6016 7.59961C71.6016 7.86523 71.668 8.07617 71.8008 8.23242C71.9336 8.38477 72.0859 8.46094 72.2578 8.46094C72.6836 8.46094 73.1465 8.14648 73.6465 7.51758C74.3145 6.68164 74.6484 5.82422 74.6484 4.94531C74.6484 4.61328 74.584 4.37305 74.4551 4.22461C74.3262 4.07617 74.1504 4.00195 73.9277 4.00195Z" stroke="#303030" stroke-width="0.25"/>
<path d="M79.0312 3.69727L78.252 6.36328C78.9824 5.27344 79.541 4.55664 79.9277 4.21289C80.3184 3.86914 80.6934 3.69727 81.0527 3.69727C81.248 3.69727 81.4082 3.76172 81.5332 3.89062C81.6621 4.01953 81.7266 4.1875 81.7266 4.39453C81.7266 4.62891 81.6699 4.94141 81.5566 5.33203L80.8418 7.79883C80.7598 8.08398 80.7188 8.25781 80.7188 8.32031C80.7188 8.375 80.7344 8.42188 80.7656 8.46094C80.7969 8.49609 80.8301 8.51367 80.8652 8.51367C80.9121 8.51367 80.9688 8.48828 81.0352 8.4375C81.2422 8.27344 81.4688 8.02344 81.7148 7.6875L81.8965 7.79883C81.5332 8.31836 81.1895 8.68945 80.8652 8.91211C80.6387 9.06445 80.4355 9.14062 80.2559 9.14062C80.1113 9.14062 79.9961 9.0957 79.9102 9.00586C79.8242 8.91992 79.7812 8.80273 79.7812 8.6543C79.7812 8.4668 79.8477 8.14453 79.9805 7.6875L80.6602 5.33203C80.7461 5.03906 80.7891 4.81055 80.7891 4.64648C80.7891 4.56836 80.7637 4.50586 80.7129 4.45898C80.6621 4.4082 80.5996 4.38281 80.5254 4.38281C80.416 4.38281 80.2852 4.42969 80.1328 4.52344C79.8438 4.69922 79.543 4.99023 79.2305 5.39648C78.918 5.79883 78.5879 6.31445 78.2402 6.94336C78.0566 7.27539 77.9043 7.63867 77.7832 8.0332L77.4902 9H76.6113L77.6777 5.33203C77.8027 4.89062 77.8652 4.625 77.8652 4.53516C77.8652 4.44922 77.8301 4.375 77.7598 4.3125C77.6934 4.24609 77.6094 4.21289 77.5078 4.21289C77.4609 4.21289 77.3789 4.2207 77.2617 4.23633L77.0391 4.27148L77.0039 4.06055L79.0312 3.69727Z" stroke="#303030" stroke-width="0.25"/>
<path d="M85.8164 0.667969L84.1523 6.42773L84.8203 5.85938C85.5508 5.24219 86.0254 4.78516 86.2441 4.48828C86.3145 4.39062 86.3496 4.31641 86.3496 4.26562C86.3496 4.23047 86.3379 4.19727 86.3145 4.16602C86.291 4.13477 86.2441 4.10938 86.1738 4.08984C86.1074 4.07031 85.9883 4.06055 85.8164 4.06055H85.6113L85.6758 3.83789H88.2363L88.1777 4.06055C87.8848 4.07617 87.6309 4.12305 87.416 4.20117C87.2051 4.27539 87 4.38672 86.8008 4.53516C86.4062 4.82812 86.1465 5.03125 86.0215 5.14453L85.5176 5.58984C85.6035 5.87109 85.709 6.26367 85.834 6.76758C86.0449 7.60352 86.1875 8.09961 86.2617 8.25586C86.3359 8.41211 86.4121 8.49023 86.4902 8.49023C86.5566 8.49023 86.6348 8.45703 86.7246 8.39062C86.9277 8.24219 87.1445 8.00586 87.375 7.68164L87.5801 7.82812C87.1543 8.36328 86.8281 8.7168 86.6016 8.88867C86.375 9.05664 86.168 9.14062 85.9805 9.14062C85.8164 9.14062 85.6895 9.07617 85.5996 8.94727C85.4434 8.7168 85.1836 7.80859 84.8203 6.22266L84.0176 6.91992L83.4141 9H82.5L84.4453 2.31445L84.6094 1.74609C84.6289 1.64844 84.6387 1.5625 84.6387 1.48828C84.6387 1.39453 84.6016 1.31641 84.5273 1.25391C84.457 1.19141 84.3535 1.16016 84.2168 1.16016C84.127 1.16016 83.9844 1.17969 83.7891 1.21875V1.01367L85.8164 0.667969Z" stroke="#303030" stroke-width="0.25"/>
<path d="M93.2637 5.53125C93.2637 6.11719 93.1074 6.69727 92.7949 7.27148C92.4863 7.8457 92.0547 8.30078 91.5 8.63672C90.9453 8.97266 90.4062 9.14062 89.8828 9.14062C89.3477 9.14062 88.9102 8.9707 88.5703 8.63086C88.2344 8.28711 88.0664 7.84375 88.0664 7.30078C88.0664 6.72656 88.2305 6.15039 88.5586 5.57227C88.8906 4.99414 89.332 4.53711 89.8828 4.20117C90.4375 3.86523 90.9727 3.69727 91.4883 3.69727C92.0039 3.69727 92.4277 3.86719 92.7598 4.20703C93.0957 4.54688 93.2637 4.98828 93.2637 5.53125ZM92.291 5.12695C92.291 4.76367 92.2012 4.48633 92.0215 4.29492C91.8457 4.09961 91.6172 4.00195 91.3359 4.00195C90.7617 4.00195 90.2324 4.41406 89.748 5.23828C89.2676 6.05859 89.0273 6.875 89.0273 7.6875C89.0273 8.05859 89.1211 8.3457 89.3086 8.54883C89.4961 8.74805 89.7324 8.84766 90.0176 8.84766C90.5684 8.84766 91.084 8.43945 91.5645 7.62305C92.0488 6.80273 92.291 5.9707 92.291 5.12695Z" stroke="#303030" stroke-width="0.25"/>
<path d="M98.0684 3.69727L97.7109 5.49609H97.4941C97.4746 4.97266 97.3633 4.5918 97.1602 4.35352C96.957 4.11523 96.7051 3.99609 96.4043 3.99609C96.1621 3.99609 95.9688 4.0625 95.8242 4.19531C95.6836 4.32812 95.6133 4.48828 95.6133 4.67578C95.6133 4.80469 95.6406 4.92773 95.6953 5.04492C95.7539 5.16211 95.8789 5.32617 96.0703 5.53711C96.5781 6.0918 96.9062 6.50977 97.0547 6.79102C97.2031 7.07227 97.2773 7.33789 97.2773 7.58789C97.2773 7.99414 97.1074 8.35547 96.7676 8.67188C96.4316 8.98438 96.0059 9.14062 95.4902 9.14062C95.209 9.14062 94.8848 9.07422 94.5176 8.94141C94.3887 8.89453 94.2891 8.87109 94.2188 8.87109C94.043 8.87109 93.9102 8.96094 93.8203 9.14062H93.6035L93.9609 7.24219H94.1777C94.2012 7.83594 94.3242 8.25586 94.5469 8.50195C94.7695 8.74805 95.0742 8.87109 95.4609 8.87109C95.7578 8.87109 95.9922 8.78906 96.1641 8.625C96.3398 8.45703 96.4277 8.25195 96.4277 8.00977C96.4277 7.85352 96.3965 7.70898 96.334 7.57617C96.2246 7.3418 95.9941 7.01758 95.6426 6.60352C95.2949 6.18945 95.0703 5.87891 94.9688 5.67188C94.8711 5.46484 94.8223 5.25781 94.8223 5.05078C94.8223 4.67188 94.959 4.35156 95.2324 4.08984C95.5098 3.82812 95.8652 3.69727 96.2988 3.69727C96.4238 3.69727 96.5371 3.70703 96.6387 3.72656C96.6934 3.73828 96.8203 3.7832 97.0195 3.86133C97.2227 3.93555 97.3574 3.97266 97.4238 3.97266C97.5918 3.97266 97.7324 3.88086 97.8457 3.69727H98.0684Z" stroke="#303030" stroke-width="0.25"/>
<path d="M101.508 2.24414L101.051 3.83789H101.971L101.871 4.20703H100.957L99.9492 7.66406C99.8398 8.03516 99.7852 8.27539 99.7852 8.38477C99.7852 8.45117 99.8008 8.50195 99.832 8.53711C99.8633 8.57227 99.9004 8.58984 99.9434 8.58984C100.041 8.58984 100.17 8.52148 100.33 8.38477C100.424 8.30664 100.633 8.06641 100.957 7.66406L101.15 7.81055C100.791 8.33398 100.451 8.70312 100.131 8.91797C99.9121 9.06641 99.6914 9.14062 99.4688 9.14062C99.2969 9.14062 99.1562 9.08789 99.0469 8.98242C98.9375 8.87305 98.8828 8.73438 98.8828 8.56641C98.8828 8.35547 98.9453 8.0332 99.0703 7.59961L100.049 4.20703H99.1641L99.2227 3.97852C99.6523 3.86133 100.01 3.6875 100.295 3.45703C100.58 3.22266 100.898 2.81836 101.25 2.24414H101.508Z" stroke="#303030" stroke-width="0.25"/>
<path d="M103.646 3.69727C103.779 3.92383 103.871 4.13672 103.922 4.33594C103.973 4.53125 104.023 4.91797 104.074 5.49609L104.332 8.37891C104.566 8.09766 104.906 7.65234 105.352 7.04297C105.566 6.74609 105.832 6.3418 106.148 5.83008C106.34 5.51758 106.457 5.29883 106.5 5.17383C106.523 5.11133 106.535 5.04688 106.535 4.98047C106.535 4.9375 106.521 4.90234 106.494 4.875C106.467 4.84766 106.395 4.81641 106.277 4.78125C106.164 4.74219 106.068 4.67383 105.99 4.57617C105.916 4.47461 105.879 4.35938 105.879 4.23047C105.879 4.07031 105.926 3.94141 106.02 3.84375C106.113 3.74609 106.23 3.69727 106.371 3.69727C106.543 3.69727 106.689 3.76953 106.811 3.91406C106.932 4.05469 106.992 4.25 106.992 4.5C106.992 4.80859 106.887 5.16211 106.676 5.56055C106.465 5.95508 106.059 6.5625 105.457 7.38281C104.855 8.20312 104.127 9.09766 103.271 10.0664C102.682 10.7344 102.244 11.1543 101.959 11.3262C101.674 11.502 101.43 11.5898 101.227 11.5898C101.105 11.5898 101 11.543 100.91 11.4492C100.816 11.3594 100.77 11.2539 100.77 11.1328C100.77 10.9805 100.834 10.8418 100.963 10.7168C101.088 10.5918 101.225 10.5293 101.373 10.5293C101.451 10.5293 101.516 10.5469 101.566 10.582C101.598 10.6016 101.633 10.6562 101.672 10.7461C101.707 10.8398 101.74 10.9023 101.771 10.9336C101.791 10.9531 101.814 10.9629 101.842 10.9629C101.865 10.9629 101.906 10.9434 101.965 10.9043C102.18 10.7715 102.43 10.5605 102.715 10.2715C103.09 9.88867 103.367 9.57617 103.547 9.33398L103.219 5.61914C103.164 5.00586 103.082 4.63281 102.973 4.5C102.863 4.36719 102.68 4.30078 102.422 4.30078C102.34 4.30078 102.193 4.3125 101.982 4.33594L101.93 4.11914L103.646 3.69727Z" stroke="#303030" stroke-width="0.25"/>
<path d="M112.711 3.83789L111.691 7.33008C111.539 7.84961 111.463 8.17773 111.463 8.31445C111.463 8.38477 111.475 8.4375 111.498 8.47266C111.525 8.50391 111.561 8.51953 111.604 8.51953C111.67 8.51953 111.742 8.49023 111.82 8.43164C111.902 8.36914 112.105 8.12695 112.43 7.70508L112.605 7.83984C112.297 8.32812 111.98 8.6875 111.656 8.91797C111.441 9.06641 111.234 9.14062 111.035 9.14062C110.883 9.14062 110.764 9.09766 110.678 9.01172C110.592 8.92578 110.549 8.81445 110.549 8.67773C110.549 8.54492 110.574 8.36914 110.625 8.15039C110.688 7.86133 110.865 7.23242 111.158 6.26367C110.494 7.35352 109.938 8.10547 109.488 8.51953C109.043 8.93359 108.629 9.14062 108.246 9.14062C108.066 9.14062 107.914 9.07812 107.789 8.95312C107.664 8.82812 107.602 8.66992 107.602 8.47852C107.602 8.18555 107.688 7.73633 107.859 7.13086L108.369 5.32031C108.494 4.88672 108.557 4.61719 108.557 4.51172C108.557 4.46484 108.539 4.42578 108.504 4.39453C108.473 4.35938 108.438 4.3418 108.398 4.3418C108.316 4.3418 108.234 4.37109 108.152 4.42969C108.07 4.48828 107.885 4.70508 107.596 5.08008L107.414 4.95117C107.707 4.49805 108.018 4.16406 108.346 3.94922C108.596 3.78125 108.826 3.69727 109.037 3.69727C109.182 3.69727 109.299 3.74414 109.389 3.83789C109.482 3.92773 109.529 4.04492 109.529 4.18945C109.529 4.40039 109.451 4.77734 109.295 5.32031L108.744 7.21289C108.592 7.72852 108.516 8.05469 108.516 8.19141C108.516 8.26562 108.539 8.32617 108.586 8.37305C108.637 8.41602 108.703 8.4375 108.785 8.4375C108.914 8.4375 109.082 8.37305 109.289 8.24414C109.496 8.11523 109.771 7.83008 110.115 7.38867C110.463 6.94336 110.748 6.52734 110.971 6.14062C111.197 5.75 111.438 5.13086 111.691 4.2832L111.82 3.83789H112.711Z" stroke="#303030" stroke-width="0.25"/>
<path d="M116.496 0.667969L114.832 6.42773L115.5 5.85938C116.23 5.24219 116.705 4.78516 116.924 4.48828C116.994 4.39062 117.029 4.31641 117.029 4.26562C117.029 4.23047 117.018 4.19727 116.994 4.16602C116.971 4.13477 116.924 4.10938 116.854 4.08984C116.787 4.07031 116.668 4.06055 116.496 4.06055H116.291L116.355 3.83789H118.916L118.857 4.06055C118.564 4.07617 118.311 4.12305 118.096 4.20117C117.885 4.27539 117.68 4.38672 117.48 4.53516C117.086 4.82812 116.826 5.03125 116.701 5.14453L116.197 5.58984C116.283 5.87109 116.389 6.26367 116.514 6.76758C116.725 7.60352 116.867 8.09961 116.941 8.25586C117.016 8.41211 117.092 8.49023 117.17 8.49023C117.236 8.49023 117.314 8.45703 117.404 8.39062C117.607 8.24219 117.824 8.00586 118.055 7.68164L118.26 7.82812C117.834 8.36328 117.508 8.7168 117.281 8.88867C117.055 9.05664 116.848 9.14062 116.66 9.14062C116.496 9.14062 116.369 9.07617 116.279 8.94727C116.123 8.7168 115.863 7.80859 115.5 6.22266L114.697 6.91992L114.094 9H113.18L115.125 2.31445L115.289 1.74609C115.309 1.64844 115.318 1.5625 115.318 1.48828C115.318 1.39453 115.281 1.31641 115.207 1.25391C115.137 1.19141 115.033 1.16016 114.896 1.16016C114.807 1.16016 114.664 1.17969 114.469 1.21875V1.01367L116.496 0.667969Z" stroke="#303030" stroke-width="0.25"/>
<path d="M119.391 7.95117C119.559 7.95117 119.699 8.00977 119.812 8.12695C119.93 8.24023 119.988 8.37891 119.988 8.54297C119.988 8.70703 119.93 8.84766 119.812 8.96484C119.695 9.07812 119.555 9.13477 119.391 9.13477C119.227 9.13477 119.086 9.07812 118.969 8.96484C118.855 8.84766 118.799 8.70703 118.799 8.54297C118.799 8.37891 118.855 8.24023 118.969 8.12695C119.086 8.00977 119.227 7.95117 119.391 7.95117Z" stroke="#303030" stroke-width="0.25"/>
<path d="M123.475 3.69727C123.666 3.90039 123.811 4.10352 123.908 4.30664C123.979 4.44727 124.094 4.81641 124.254 5.41406L124.77 4.64062C124.906 4.45312 125.072 4.27539 125.268 4.10742C125.463 3.93555 125.635 3.81836 125.783 3.75586C125.877 3.7168 125.98 3.69727 126.094 3.69727C126.262 3.69727 126.395 3.74219 126.492 3.83203C126.594 3.92188 126.645 4.03125 126.645 4.16016C126.645 4.30859 126.615 4.41016 126.557 4.46484C126.447 4.5625 126.322 4.61133 126.182 4.61133C126.1 4.61133 126.012 4.59375 125.918 4.55859C125.734 4.49609 125.611 4.46484 125.549 4.46484C125.455 4.46484 125.344 4.51953 125.215 4.62891C124.973 4.83203 124.684 5.22461 124.348 5.80664L124.828 7.82227C124.902 8.13086 124.965 8.31641 125.016 8.37891C125.066 8.4375 125.117 8.4668 125.168 8.4668C125.25 8.4668 125.346 8.42188 125.455 8.33203C125.67 8.15234 125.854 7.91797 126.006 7.62891L126.211 7.73438C125.965 8.19531 125.652 8.57812 125.273 8.88281C125.059 9.05469 124.877 9.14062 124.729 9.14062C124.51 9.14062 124.336 9.01758 124.207 8.77148C124.125 8.61914 123.955 7.96289 123.697 6.80273C123.088 7.86133 122.6 8.54297 122.232 8.84766C121.994 9.04297 121.764 9.14062 121.541 9.14062C121.385 9.14062 121.242 9.08398 121.113 8.9707C121.02 8.88477 120.973 8.76953 120.973 8.625C120.973 8.49609 121.016 8.38867 121.102 8.30273C121.188 8.2168 121.293 8.17383 121.418 8.17383C121.543 8.17383 121.676 8.23633 121.816 8.36133C121.918 8.45117 121.996 8.49609 122.051 8.49609C122.098 8.49609 122.158 8.46484 122.232 8.40234C122.416 8.25391 122.666 7.93359 122.982 7.44141C123.299 6.94922 123.506 6.59375 123.604 6.375C123.361 5.42578 123.23 4.92383 123.211 4.86914C123.121 4.61523 123.004 4.43555 122.859 4.33008C122.715 4.22461 122.502 4.17188 122.221 4.17188C122.131 4.17188 122.027 4.17578 121.91 4.18359V3.97266L123.475 3.69727Z" stroke="#303030" stroke-width="0.25"/>
<path d="M128.643 3.69727C128.775 3.92383 128.867 4.13672 128.918 4.33594C128.969 4.53125 129.02 4.91797 129.07 5.49609L129.328 8.37891C129.562 8.09766 129.902 7.65234 130.348 7.04297C130.562 6.74609 130.828 6.3418 131.145 5.83008C131.336 5.51758 131.453 5.29883 131.496 5.17383C131.52 5.11133 131.531 5.04688 131.531 4.98047C131.531 4.9375 131.518 4.90234 131.49 4.875C131.463 4.84766 131.391 4.81641 131.273 4.78125C131.16 4.74219 131.064 4.67383 130.986 4.57617C130.912 4.47461 130.875 4.35938 130.875 4.23047C130.875 4.07031 130.922 3.94141 131.016 3.84375C131.109 3.74609 131.227 3.69727 131.367 3.69727C131.539 3.69727 131.686 3.76953 131.807 3.91406C131.928 4.05469 131.988 4.25 131.988 4.5C131.988 4.80859 131.883 5.16211 131.672 5.56055C131.461 5.95508 131.055 6.5625 130.453 7.38281C129.852 8.20312 129.123 9.09766 128.268 10.0664C127.678 10.7344 127.24 11.1543 126.955 11.3262C126.67 11.502 126.426 11.5898 126.223 11.5898C126.102 11.5898 125.996 11.543 125.906 11.4492C125.812 11.3594 125.766 11.2539 125.766 11.1328C125.766 10.9805 125.83 10.8418 125.959 10.7168C126.084 10.5918 126.221 10.5293 126.369 10.5293C126.447 10.5293 126.512 10.5469 126.562 10.582C126.594 10.6016 126.629 10.6562 126.668 10.7461C126.703 10.8398 126.736 10.9023 126.768 10.9336C126.787 10.9531 126.811 10.9629 126.838 10.9629C126.861 10.9629 126.902 10.9434 126.961 10.9043C127.176 10.7715 127.426 10.5605 127.711 10.2715C128.086 9.88867 128.363 9.57617 128.543 9.33398L128.215 5.61914C128.16 5.00586 128.078 4.63281 127.969 4.5C127.859 4.36719 127.676 4.30078 127.418 4.30078C127.336 4.30078 127.189 4.3125 126.979 4.33594L126.926 4.11914L128.643 3.69727Z" stroke="#303030" stroke-width="0.25"/>
<path d="M133.066 3.83789H136.787V3.98438L132.732 8.20312H134.449C134.855 8.20312 135.113 8.1875 135.223 8.15625C135.332 8.125 135.432 8.05859 135.521 7.95703C135.615 7.85547 135.719 7.67188 135.832 7.40625H136.049L135.539 9H131.725V8.83008L135.779 4.61133H134.092C133.736 4.61133 133.521 4.62109 133.447 4.64062C133.338 4.66406 133.229 4.72656 133.119 4.82812C133.014 4.92578 132.904 5.08984 132.791 5.32031H132.568L133.066 3.83789Z" stroke="#303030" stroke-width="0.25"/>
</svg>
