<svg xmlns="http://www.w3.org/2000/svg" xmlns:xlink="http://www.w3.org/1999/xlink" aria-hidden="true" role="img" preserveAspectRatio="xMidYMid meet" viewBox="0 0 256 256"><path d="M224.3 161.6a101.9 101.9 0 0 0 0-67.2l-.3-.8a102 102 0 0 0-192 0l-.3.8a101.9 101.9 0 0 0 0 67.2l.3.8a102 102 0 0 0 192 .1zM99.7 166h56.6c-5.7 18.3-15.4 34.7-28.3 47.3c-12.9-12.6-22.6-29-28.3-47.3zm-3-12a126.5 126.5 0 0 1 0-52h62.6a126.5 126.5 0 0 1 0 52zM38 128a89.4 89.4 0 0 1 3.8-26h42.6a142 142 0 0 0 0 52H41.8a89.4 89.4 0 0 1-3.8-26zm118.3-38H99.7c5.7-18.3 15.4-34.7 28.3-47.3c12.9 12.6 22.6 29 28.3 47.3zm15.4 12h42.5a90.8 90.8 0 0 1 0 52h-42.5a148.1 148.1 0 0 0 0-52zm37.9-12h-40.7A124 124 0 0 0 141 39a90.1 90.1 0 0 1 68.6 51zM115 39a124 124 0 0 0-27.9 51H46.4A90.1 90.1 0 0 1 115 39zM46.4 166h40.7a125 125 0 0 0 27.9 51.1A90.5 90.5 0 0 1 46.4 166zm94.6 51.1a125 125 0 0 0 27.9-51.1h40.7a90.5 90.5 0 0 1-68.6 51.1z" fill="currentColor"></path></svg>