<svg xmlns="http://www.w3.org/2000/svg" xmlns:xlink="http://www.w3.org/1999/xlink" aria-hidden="true" role="img" width="32" height="32" preserveAspectRatio="xMidYMid meet" viewBox="0 0 24 24" fill="currentColor"><path d="M6 12c0 4.43 3.478 8 7.742 8c.658 0 1.302-.085 1.922-.248c-2.996-2.2-4.896-5.786-4.896-9.752c0-2.09.527-4.095 1.489-5.853C8.699 4.863 6 8.097 6 12zm6.768-2c0 4.632 3.068 8.528 7.232 9.665A9.555 9.555 0 0 1 13.742 22C8.362 22 4 17.523 4 12S8.362 2 13.742 2c.868 0 1.71.117 2.511.335A10.086 10.086 0 0 0 12.768 10z"></path></svg>