<svg width="512" height="512" viewBox="0 0 512 512" fill="none" xmlns="http://www.w3.org/2000/svg">
<path d="M188.016 279.859V299.781H164.578V336.5H141.922V299.781H68.875V281.031L136.062 188.062H164.578V279.859H188.016ZM93.0938 279.859H141.922V212.281L93.0938 279.859Z" fill="black"/>
<path d="M261.062 338.453C242.833 338.453 228.38 331.552 217.703 317.75C207.026 303.948 201.688 285.458 201.688 262.281C201.688 239.104 207.026 220.615 217.703 206.812C228.38 193.01 242.833 186.109 261.062 186.109C279.292 186.109 293.745 193.01 304.422 206.812C315.099 220.615 320.438 239.104 320.438 262.281C320.438 285.458 315.099 303.948 304.422 317.75C293.745 331.552 279.292 338.453 261.062 338.453ZM261.062 318.141C272 318.141 280.594 313.193 286.844 303.297C293.354 293.141 296.609 279.469 296.609 262.281C296.609 245.094 293.354 231.552 286.844 221.656C280.594 211.5 272 206.422 261.062 206.422C250.125 206.422 241.401 211.5 234.891 221.656C228.641 231.552 225.516 245.094 225.516 262.281C225.516 279.469 228.641 293.141 234.891 303.297C241.401 313.193 250.125 318.141 261.062 318.141Z" fill="black"/>
<path d="M453.641 279.859V299.781H430.203V336.5H407.547V299.781H334.5V281.031L401.688 188.062H430.203V279.859H453.641ZM358.719 279.859H407.547V212.281L358.719 279.859Z" fill="black"/>
</svg>
